<svg xmlns="http://www.w3.org/2000/svg" viewBox="0 0 310.3 77.11"><defs><style>.cls-1{fill:#79a27a;}.cls-2{fill:#00adee;}.cls-3{fill:#808184;}</style></defs><title>Asset 1</title><g id="Layer_2" data-name="Layer 2"><g id="Layer_1-2" data-name="Layer 1"><path class="cls-1" d="M41.81.47q-14.2-2.29-26.6,6.64A35.48,35.48,0,0,0,.58,30.77,34.28,34.28,0,0,0,6.63,57.63a18.54,18.54,0,0,0,12.11,7.79,17.91,17.91,0,0,0,5.6.13c1,1.1,1.63,1.77,1.63,1.77a11.7,11.7,0,0,0,2.16,0c-.59-.66-1.22-1.38-1.87-2.13h0C21.37,59.62,6.41,43.48,11.74,26.81,17.7,8.14,31.85,6.1,31.85,6.1A33.44,33.44,0,0,0,14.23,27.69c-4,14.65,6.6,28.51,13.82,36.91a19.18,19.18,0,0,0,4.38-2.38c4-2.91,5.5-6,6.36-10.78A18.09,18.09,0,0,0,35.94,38l-.69-1a18.42,18.42,0,0,1-2.84-13.5c.83-4.75,4.24-9.28,8.26-12.19A20,20,0,0,1,53.32,7.58C57.47,8,51.27,2,41.81.47"/><path class="cls-2" d="M52.67,18.64c-1.28-1.06-2.21-5.82,3-5.21,12.63,3.62,12.74,17,12.74,17C66.82,20.86,55,20.53,52.67,18.64m16.51,1.1A22.49,22.49,0,0,0,56.68,11c-3.33-.83-9.32.19-13.5,3.18a15.32,15.32,0,0,0-6.33,10.45c-.65,4.76.69,8.74,3.44,13A21.17,21.17,0,0,1,42.8,54.49a19.72,19.72,0,0,1-7.66,11.44q-6.33,4.56-12.83,3.52c-4.33-.7,2.23,5.67,11.7,7.19S52.35,76,60.6,70A35.2,35.2,0,0,0,75.23,46.47a34,34,0,0,0-6-26.73"/><path class="cls-2" d="M297.92,30.05c0-1.5.06-3.59,3.16-3.59a3.34,3.34,0,0,1,3,1.67c.89,1.38,1.43,2.28,3,2.28a3.1,3.1,0,0,0,3.18-3.23c0-3.53-3.47-4.49-7.18-4.49-4.6,0-8.91,1-10.95,2.1-1.49.77-1.73,1.55-1.73,3.41v25c0,1,.3,1.26,1.31,1.26h4.91c1,0,1.19-.3,1.26-1.26Zm-31.4,5c.3-4.12,2.16-7.89,6.28-7.89,2.63,0,5,2.21,5.21,6Zm16.87,1.26a2.11,2.11,0,0,0,2.09-2.4c0-2.86-2.22-11.24-11.55-11.24-6.39,0-13.39,4.31-13.39,16.21,0,10.58,5.5,16.32,13.39,16.32,9.39,0,11.85-8.73,11.85-10.4A1.67,1.67,0,0,0,284.22,43c-.77,0-1.07.35-2,1.73a9.1,9.1,0,0,1-7.12,3.95c-2.87,0-7.23-1.62-8.25-9.87Zm-26.26-9.57c1,0,1-.24,1-2.45,0-.84-.48-.84-1.14-.84h-4.54v-7c0-.71-.06-1.67-.84-1.67-.24,0-.42.06-1.07.48L246.25,18a2,2,0,0,0-1.08,2.09v3.35h-2.93c-.77,0-1,.24-1,1,0,2.09,0,2.33,1.07,2.33h2.87V46.43c0,1.92.06,4.07,1.74,6.1,1.19,1.44,3.29,2.64,6.52,2.64,2.39,0,5.74-1,5.74-2.64S258,51,256.54,51c-4-.18-4.07-4-4.07-5.74V26.76ZM231.24,47.15c0,1.32-.06,4-3.71,4-3.17,0-5-2.15-5-5.14,0-4.49,4-5.75,8.67-7.18Zm7.06-14c0-4.43.06-10.47-9.57-10.47-7.24,0-11.9,3.59-11.9,7.24a3.09,3.09,0,0,0,3.23,3.17c2.27,0,2.81-1.5,3.35-3,.47-1.08,1.31-3.29,4.18-3.29,3.59,0,3.65,3.23,3.65,5.44v3.05c-6.82,1.8-10.7,2.81-13.33,5.38a8.12,8.12,0,0,0-2.64,6.1c0,8.43,9.69,8.43,11.6,8.43,1.08,0,5.69,0,8.8-1.79,2.33-1.25,2.57-2.69,2.63-5.32Zm-40,20.15c.3,1,.54,1.14,1.44,1.14h3.82c.84,0,1-.18,1.26-1.14l8.67-28a6.09,6.09,0,0,0,.24-1.08c0-.72-.66-.72-1.19-.72H209c-1,0-1.08.3-1.32,1.2l-5.5,20L196,24.55c-.3-.84-.36-1.08-1.08-1.08a17.5,17.5,0,0,0-2,.06c-.48.12-.6.6-.78,1.14l-6,20-5.5-20c-.3-1.14-.72-1.2-1.73-1.2h-5c-.41,0-1.19,0-1.19.84a3.79,3.79,0,0,0,.24,1.07l8.79,28c.29.9.48,1.08,1.37,1.08h3.77c.9,0,1-.12,1.32-1l5.08-16.14Z"/><path class="cls-1" d="M162.11,47.33a7,7,0,0,1-4.78,2.21c-4.25,0-6.46-5-6.46-10.34,0-5.86,2.33-12.08,7.36-12.08,3.82,0,3.88,3.17,3.88,5.2Zm0,19.91c0,1.14.36,1.2,1.38,1.2h4.6c1,0,1.38-.06,1.38-1.2V31.07c0-2.57-.06-4.19-2.1-5.8a14.94,14.94,0,0,0-8.73-2.58c-11.48,0-15.24,10.53-15.24,17.94,0,7.78,3.82,14.59,10.94,14.59a11.38,11.38,0,0,0,7.77-3.4ZM120.73,35.07c.3-4.13,2.15-7.89,6.28-7.89,2.63,0,5,2.21,5.2,6Zm16.87,1.26a2.11,2.11,0,0,0,2.09-2.4c0-2.86-2.21-11.24-11.54-11.24-6.4,0-13.4,4.31-13.4,16.21,0,10.58,5.5,16.32,13.4,16.32,9.39,0,11.84-8.73,11.84-10.4A1.68,1.68,0,0,0,138.43,43c-.78,0-1.08.36-2,1.74a9.11,9.11,0,0,1-7.12,3.95c-2.87,0-7.23-1.62-8.25-9.87Zm-37-1.08c-2.09-.9-4.73-2-4.73-5a3.54,3.54,0,0,1,3.59-3.59c2.45,0,3.47,1.79,4.07,2.93S105,32,106.86,32a2.81,2.81,0,0,0,2.87-2.93c0-2.39-2.69-6.4-9.93-6.4-7.59,0-10.4,4.55-10.4,8.8,0,5.55,4.78,7.89,6.58,8.73,1.49.71,5.14,2.45,6,3A4.85,4.85,0,0,1,103.87,47a3.6,3.6,0,0,1-3.77,3.71c-2.39,0-3.47-1.55-4.9-3.59-.84-1.13-1.68-2.33-3.35-2.33a3.1,3.1,0,0,0-3,3.23c0,2.39,2.87,7.23,11.12,7.23,8.91,0,10.76-6,10.76-9.38,0-5.74-4.3-7.9-7.05-9.21Z"/><path class="cls-3" d="M298.17,73V71.55h-5.32V68.27h4.54V66.8h-4.54V63.61h5.32V62.12h-7V73Zm-9-9.42V62.12h-7V73h1.65V68.42h4.53V66.93h-4.53V63.61Zm-9.83-1.49h-1.65V73h1.65ZM275.83,73V71.55h-5.25V62.12h-1.66V73Zm-14.67-7.7a1.66,1.66,0,0,1-1.85,1.7h-2.46V63.61h2.46a1.67,1.67,0,0,1,1.85,1.72m2,7.7-2.51-4.82a2.87,2.87,0,0,0,2.18-2.9,3.13,3.13,0,0,0-3.39-3.19H255.2V73h1.65V68.44h2.07l2.3,4.59Zm-12.06-5.45c0,2.19-.11,2.8-.64,3.39a2.32,2.32,0,0,1-3.26,0c-.53-.59-.64-1.2-.64-3.39s.11-2.81.64-3.39a2.29,2.29,0,0,1,3.26,0c.53.58.64,1.2.64,3.39m1.65,0c0-2.1,0-3.31-1-4.39A3.93,3.93,0,0,0,248.82,62,3.88,3.88,0,0,0,246,63.19c-1.08,1.08-1.06,2.29-1.06,4.39s0,3.31,1.06,4.38a3.89,3.89,0,0,0,2.86,1.17A3.93,3.93,0,0,0,251.7,72c1.08-1.07,1-2.28,1-4.38m-9.13-4V62.12h-7V73h1.66V68.42h4.54V66.93h-4.54V63.61Zm-14.73,1.72A1.66,1.66,0,0,1,227,67h-2.45V63.61H227a1.67,1.67,0,0,1,1.86,1.72m2,7.7-2.51-4.82a2.88,2.88,0,0,0,2.17-2.9,3.13,3.13,0,0,0-3.39-3.19h-4.23V73h1.66V68.44h2.07l2.3,4.59Zm-10.23,0V71.55h-5.31V68.27h4.53V66.8h-4.53V63.61h5.31V62.12h-7V73Zm-8.86-9.42V62.12h-7.66v1.49h3V73h1.66V63.61Zm-10.3,5.82h-3.36l1.71-4.84Zm3,3.6-4-10.91h-1.33l-4,10.91h1.76l.75-2.19h4.31l.75,2.19Zm-9.41-10.91H193.3l-1.9,7.81-2.2-7.81h-1.33l-2.19,7.81-1.9-7.81H182L184.88,73h1.44l2.21-7.64L190.75,73h1.44Z"/></g></g></svg>